HIERARCHY
ROOT Hips
{
	OFFSET -0.001795 -0.223333 0.028219
	CHANNELS 6 Xposition Yposition Zposition Zrotation Yrotation Xrotation 
	JOINT LeftUpLeg
	{
		OFFSET 0.069520 -0.091406 -0.006815
		CHANNELS 3 Zrotation Yrotation Xrotation
		JOINT LeftLeg
		{
			OFFSET 0.034277 -0.375199 -0.004496
			CHANNELS 3 Zrotation Yrotation Xrotation
			JOINT LeftFoot
			{
				OFFSET -0.013596 -0.397961 -0.043693
				CHANNELS 3 Zrotation Yrotation Xrotation
				JOINT LeftToe
				{
					OFFSET 0.026358 -0.055791 0.119288
					CHANNELS 3 Zrotation Yrotation Xrotation
					End Site
					{
						OFFSET 0.000000 0.000000 0.000000
					}
				}
			}
		}
	}
	JOINT RightUpLeg
	{
		OFFSET -0.067670 -0.090522 -0.004320
		CHANNELS 3 Zrotation Yrotation Xrotation
		JOINT RightLeg
		{
			OFFSET -0.038290 -0.382569 -0.008850
			CHANNELS 3 Zrotation Yrotation Xrotation
			JOINT RightFoot
			{
				OFFSET 0.015774 -0.398415 -0.042312
				CHANNELS 3 Zrotation Yrotation Xrotation
				JOINT RightToe
				{
					OFFSET -0.025372 -0.048144 0.123348
					CHANNELS 3 Zrotation Yrotation Xrotation
					End Site
					{
						OFFSET 0.000000 0.000000 0.000000
					}
				}
			}
		}
	}
	JOINT Spine
	{
		OFFSET -0.002533 0.108963 -0.026696
		CHANNELS 3 Zrotation Yrotation Xrotation
		JOINT Spine1
		{
			OFFSET 0.005487 0.135180 0.001092
			CHANNELS 3 Zrotation Yrotation Xrotation
			JOINT Spine2
			{
				OFFSET 0.001457 0.052922 0.025425
				CHANNELS 3 Zrotation Yrotation Xrotation
				JOINT Neck
				{
					OFFSET -0.002778 0.213870 -0.042857
					CHANNELS 3 Zrotation Yrotation Xrotation
					JOINT Head
					{
						OFFSET 0.005152 0.064970 0.051349
						CHANNELS 3 Zrotation Yrotation Xrotation
						End Site
						{
							OFFSET 0.000000 0.000000 0.000000
						}
					}
				}
				JOINT LeftShoulder
				{
					OFFSET 0.078845 0.121749 -0.034090
					CHANNELS 3 Zrotation Yrotation Xrotation
					JOINT LeftArm
					{
						OFFSET 0.090977 0.030469 -0.008868
						CHANNELS 3 Zrotation Yrotation Xrotation
						JOINT LeftForeArm
						{
							OFFSET 0.259612 -0.012772 -0.027456
							CHANNELS 3 Zrotation Yrotation Xrotation
							JOINT LeftHand
							{
								OFFSET 0.249234 0.008986 -0.001171
								CHANNELS 3 Zrotation Yrotation Xrotation
								End Site
								{
									OFFSET 0.000000 0.000000 0.000000
								}
							}
						}
					}
				}
				JOINT RightShoulder
				{
					OFFSET -0.081759 0.118833 -0.038615
					CHANNELS 3 Zrotation Yrotation Xrotation
					JOINT RightArm
					{
						OFFSET -0.096012 0.032551 -0.009143
						CHANNELS 3 Zrotation Yrotation Xrotation
						JOINT RightForeArm
						{
							OFFSET -0.253742 -0.013329 -0.021401
							CHANNELS 3 Zrotation Yrotation Xrotation
							JOINT RightHand
							{
								OFFSET -0.255298 0.007772 -0.005559
								CHANNELS 3 Zrotation Yrotation Xrotation
								End Site
								{
									OFFSET 0.000000 0.000000 0.000000
								}
							}
						}
					}
				}
			}
		}
	}
}
MOTION
Frames: 16
Frame Time: 0.050000
0.039345 0.996535 -0.091423 34.100973 -26.787168 -38.160742 -4.109867 18.570475 -118.562656 -15.818237 4.878490 100.276779 -22.275608 2.584626 71.532951 0.000000 0.000000 0.000000 -25.066401 6.374142 12.618769 1.207389 0.652330 11.406745 -0.704489 -9.842012 11.766633 0.000000 0.000000 0.000000 -13.500128 4.993781 26.791210 -10.833818 4.847683 -4.629636 -7.070523 14.405040 3.829240 11.224973 -5.183082 -21.739203 0.000000 0.000000 0.000000 -15.093742 -21.845161 9.541617 -33.896467 -24.055046 2.019254 -7.345064 -63.388282 6.712313 0.000000 0.000000 0.000000 11.963127 20.405722 7.199711 55.280394 36.464154 12.168231 14.052259 62.897392 9.778346 0.000000 0.000000 0.000000 
0.039792 0.995234 -0.092915 34.464961 -26.412940 -38.190225 -3.742793 19.009512 -118.474684 -16.532798 5.920992 100.286526 -24.130430 1.435794 71.585100 0.000000 0.000000 0.000000 -25.272373 6.472487 12.759565 0.328717 0.735566 11.017029 -0.572830 -9.405573 11.318214 0.000000 0.000000 0.000000 -13.570105 5.157732 27.273275 -10.764996 4.851695 -4.408971 -7.179759 13.983952 3.606901 11.181074 -4.988966 -22.730977 0.000000 0.000000 0.000000 -15.113020 -22.549511 9.911862 -33.717722 -25.061651 2.295510 -5.967394 -61.272816 5.616193 0.000000 0.000000 0.000000 11.608673 20.712022 7.260178 54.989340 37.344185 12.572644 11.949458 61.485585 8.187239 0.000000 0.000000 0.000000 
0.040068 0.995378 -0.094127 34.103020 -26.334782 -37.879059 -3.934510 18.356242 -119.800108 -16.032241 4.806329 101.381140 -26.981069 -0.144886 71.800334 0.000000 0.000000 0.000000 -24.988548 6.368570 12.958628 0.505641 0.716495 11.067000 -0.817556 -9.689667 11.160795 0.000000 0.000000 0.000000 -13.515754 5.322087 27.980968 -10.354556 4.669723 -4.204215 -7.550721 13.683956 2.678555 11.622276 -5.177180 -22.738865 0.000000 0.000000 0.000000 -14.999281 -22.757664 9.922037 -33.973833 -25.498538 2.521769 -4.761496 -59.775494 4.673303 0.000000 0.000000 0.000000 10.974005 20.939434 7.305027 55.016814 37.757135 12.868687 11.026864 60.942905 7.538591 0.000000 0.000000 0.000000 
0.040434 0.994524 -0.095335 34.234249 -25.959586 -37.268457 -3.332383 18.834039 -120.507390 -16.547607 5.024196 100.320776 -29.619211 -1.187456 72.926250 0.000000 0.000000 0.000000 -25.064249 6.396942 13.179228 0.832902 0.627658 10.692442 -1.744488 -10.532513 10.060710 0.000000 0.000000 0.000000 -13.892775 5.475910 28.238214 -10.366364 4.640011 -4.463430 -7.196191 13.742418 2.241923 11.941708 -5.133464 -23.623820 0.000000 0.000000 0.000000 -14.815846 -23.035226 9.957802 -34.226560 -26.432240 2.865393 -3.355210 -58.111688 3.678592 0.000000 0.000000 0.000000 10.258320 20.816561 7.228699 55.494231 38.051031 13.206242 10.370853 60.601464 7.148999 0.000000 0.000000 0.000000 
0.040738 0.994622 -0.096509 34.366094 -25.970671 -37.096772 -2.925325 19.516866 -121.056140 -16.372038 4.366592 100.738468 -33.036625 -2.717466 73.892880 0.000000 0.000000 0.000000 -25.228805 6.540813 13.467951 0.651172 0.582066 9.993604 -1.812342 -10.691929 10.181147 0.000000 0.000000 0.000000 -14.210733 5.544064 28.179753 -10.668322 4.844726 -4.267292 -6.863236 13.588164 1.810376 12.132097 -5.359983 -22.820033 0.000000 0.000000 0.000000 -15.245219 -22.792683 9.907044 -33.959866 -26.037352 2.762631 -1.518282 -57.796830 2.646181 0.000000 0.000000 0.000000 10.432419 20.711553 7.208927 54.982468 37.923033 13.018395 10.637174 60.388818 7.221666 0.000000 0.000000 0.000000 
0.040963 0.994034 -0.098132 34.263376 -25.490372 -37.077638 -2.265638 19.963298 -119.930572 -16.400232 4.833274 99.748852 -35.678533 -3.807397 74.869416 0.000000 0.000000 0.000000 -25.070255 6.453905 13.686622 0.548171 0.621159 10.284151 -1.320404 -9.808589 9.984564 0.000000 0.000000 0.000000 -14.401026 5.496395 28.066249 -10.715539 4.973966 -3.756947 -6.735853 13.134225 2.376648 11.832807 -5.206351 -23.010569 0.000000 0.000000 0.000000 -15.087612 -22.579854 9.841514 -33.465686 -26.299700 2.738626 0.573338 -58.301311 1.560950 0.000000 0.000000 0.000000 10.231447 20.509830 7.063188 54.809060 38.570608 13.260027 9.470521 60.351540 6.499369 0.000000 0.000000 0.000000 
0.041113 0.993088 -0.099632 34.184520 -25.291468 -36.665872 -1.624218 20.677455 -119.563976 -16.916595 5.650683 99.660213 -39.797327 -5.131517 77.008665 0.000000 0.000000 0.000000 -24.785350 6.273986 13.536562 0.279329 0.677517 10.459753 -1.146382 -9.408886 9.773301 0.000000 0.000000 0.000000 -14.613049 5.328948 27.386187 -10.751640 5.046646 -3.462024 -7.120678 13.213518 2.488577 12.186198 -5.436192 -22.793855 0.000000 0.000000 0.000000 -14.980455 -22.550911 9.791714 -32.793819 -26.154263 2.612002 0.254704 -58.629215 1.735978 0.000000 0.000000 0.000000 9.659495 19.972506 6.831624 55.933415 38.664342 13.637582 8.794053 60.706687 6.247187 0.000000 0.000000 0.000000 
0.041316 0.992521 -0.101175 34.243642 -25.363277 -36.087874 -1.757018 20.496982 -120.140070 -17.827327 7.110125 101.241249 -42.014002 -7.472826 75.825318 0.000000 0.000000 0.000000 -24.424588 6.021899 13.014806 -0.461306 0.860233 11.090628 -0.688083 -8.196875 8.958419 0.000000 0.000000 0.000000 -14.677039 5.032525 26.270140 -10.829716 5.121440 -3.234120 -7.190400 13.587469 2.809905 12.465052 -5.704897 -22.159051 0.000000 0.000000 0.000000 -14.866136 -22.439391 9.714404 -32.564846 -26.237014 2.582694 1.408437 -58.908960 1.113494 0.000000 0.000000 0.000000 9.522913 19.685916 6.771011 56.537440 38.774722 13.853308 6.079529 60.755527 4.816722 0.000000 0.000000 0.000000 
0.041497 0.991046 -0.102578 33.748231 -25.277157 -35.430671 -2.044168 19.692382 -121.050617 -18.766850 8.618586 102.106893 -41.581806 -8.069238 74.823075 0.000000 0.000000 0.000000 -24.046088 5.742118 12.560918 -0.615703 0.987414 11.915113 -0.667959 -7.931210 8.598122 0.000000 0.000000 0.000000 -14.363796 4.806882 25.822036 -10.846718 5.135826 -3.177354 -6.958802 13.746062 3.075186 12.338224 -5.603708 -22.254765 0.000000 0.000000 0.000000 -14.839362 -21.908293 9.438283 -32.985858 -26.366459 2.654864 1.172507 -59.849583 1.286620 0.000000 0.000000 0.000000 9.355568 19.066065 6.549345 57.303227 37.766259 13.501749 6.471215 62.023222 5.264401 0.000000 0.000000 0.000000 
0.041747 0.990002 -0.104031 32.992010 -24.548141 -34.497830 -2.152494 18.210956 -121.783935 -18.780880 8.999434 102.340386 -43.673316 -9.757878 74.464201 0.000000 0.000000 0.000000 -23.997322 5.489553 12.246265 0.010569 0.923640 12.266042 -1.466638 -8.915075 8.039641 0.000000 0.000000 0.000000 -14.093826 4.481269 25.267189 -10.651333 4.980228 -3.468759 -6.576681 14.003031 4.065002 12.496245 -5.609147 -22.695589 0.000000 0.000000 0.000000 -14.974853 -21.565515 9.250972 -33.449471 -26.361605 2.655802 1.068493 -60.806603 1.363490 0.000000 0.000000 0.000000 9.438981 18.497779 6.396600 57.541180 37.064033 13.110674 6.589548 63.466832 5.672780 0.000000 0.000000 0.000000 
0.041954 0.989514 -0.105892 32.779027 -24.695465 -34.821369 -2.715682 17.498414 -120.865289 -17.779392 8.110434 102.497423 -43.942248 -10.140419 74.200669 0.000000 0.000000 0.000000 -23.636604 5.440085 12.404008 0.158172 0.954946 12.709883 -1.661520 -9.132187 7.837503 0.000000 0.000000 0.000000 -13.598365 4.482802 25.696442 -10.672987 4.910058 -3.930519 -6.272482 14.402316 4.557577 12.127875 -5.334182 -23.069552 0.000000 0.000000 0.000000 -15.316866 -21.484150 9.226968 -34.100448 -25.694457 2.520568 1.025830 -61.240689 1.385012 0.000000 0.000000 0.000000 9.617431 18.624669 6.475951 57.037653 36.640405 12.705439 8.112742 63.799336 6.706569 0.000000 0.000000 0.000000 
0.042058 0.990674 -0.107739 32.417593 -24.450746 -34.827202 -3.139265 16.434984 -120.330353 -17.596887 8.625074 103.256574 -40.793569 -9.458514 72.282590 0.000000 0.000000 0.000000 -23.172239 5.339274 12.775210 0.056859 1.003456 12.982864 -1.441589 -8.740343 7.816749 0.000000 0.000000 0.000000 -13.329534 4.378743 25.711313 -10.789473 5.046602 -3.577023 -5.939064 14.194479 4.575412 11.817956 -5.331396 -22.186095 0.000000 0.000000 0.000000 -15.035483 -21.350697 9.132285 -34.689572 -25.416888 2.513289 1.184600 -61.836648 1.334701 0.000000 0.000000 0.000000 9.583587 18.504675 6.406453 57.085437 36.884977 12.853839 9.053402 64.411783 7.319802 0.000000 0.000000 0.000000 
0.042222 0.991856 -0.109542 32.027892 -24.315022 -34.449412 -3.157120 15.960222 -119.832987 -17.950080 9.873800 104.164079 -37.207628 -7.909473 71.231111 0.000000 0.000000 0.000000 -22.837097 5.111901 12.507142 -0.071210 1.029498 13.010554 -1.126626 -8.160769 7.755115 0.000000 0.000000 0.000000 -13.472172 4.311256 25.473869 -10.737061 5.069309 -3.303729 -5.731577 13.708123 4.066479 11.508564 -5.247968 -21.654862 0.000000 0.000000 0.000000 -14.964310 -21.181391 9.081391 -35.275950 -24.595862 2.373875 -0.719866 -62.260286 2.559204 0.000000 0.000000 0.000000 9.547967 18.719163 6.462089 57.405373 37.177063 13.143665 10.142107 64.399032 7.874347 0.000000 0.000000 0.000000 
0.042204 0.993707 -0.111461 31.531138 -24.372289 -34.017972 -3.460439 15.208602 -120.090766 -17.919736 10.356899 105.694899 -34.185589 -7.748246 68.220460 0.000000 0.000000 0.000000 -22.206487 4.749669 11.914699 -0.638818 1.171540 13.298535 -0.193134 -6.838866 8.235322 0.000000 0.000000 0.000000 -13.207283 4.201525 25.392054 -10.763851 5.082678 -3.324599 -5.600731 13.686568 3.481236 11.648446 -5.575272 -20.134490 0.000000 0.000000 0.000000 -15.065289 -21.096652 9.017704 -35.222970 -23.736289 2.170248 -1.604160 -62.172711 3.059768 0.000000 0.000000 0.000000 9.549192 19.191671 6.676076 57.035703 38.200364 13.664698 9.295736 63.411268 7.168405 0.000000 0.000000 0.000000 
0.042428 0.994322 -0.113505 31.279116 -24.048630 -34.158480 -3.767046 14.306142 -119.417329 -17.228589 10.051909 106.568941 -29.838942 -5.740943 66.131179 0.000000 0.000000 0.000000 -21.519090 4.523943 12.037921 -1.484883 1.369714 13.610488 0.265793 -5.887782 8.006761 0.000000 0.000000 0.000000 -13.122874 4.316018 26.032082 -10.425506 4.858668 -3.557780 -5.707216 13.861734 3.074839 11.703486 -5.575256 -20.046339 0.000000 0.000000 0.000000 -14.687435 -21.513678 9.061065 -35.944172 -22.893200 2.036199 -0.724088 -62.073217 2.432931 0.000000 0.000000 0.000000 9.405238 19.947952 7.003353 56.349578 38.982559 13.958414 8.268099 62.791829 6.497672 0.000000 0.000000 0.000000 
0.042596 0.994554 -0.115377 31.250179 -23.786802 -34.416055 -3.851926 14.030979 -118.933070 -16.729836 9.538075 106.681197 -26.854492 -4.169272 64.755187 0.000000 0.000000 0.000000 -21.420285 4.525658 12.259654 -1.705603 1.446034 13.858063 0.109486 -6.304838 8.227273 0.000000 0.000000 0.000000 -13.164994 4.479216 26.643797 -10.276584 4.739564 -3.796711 -5.794796 13.998852 2.803072 11.599529 -5.484731 -20.022292 0.000000 0.000000 0.000000 -14.716526 -21.430204 8.944331 -36.317708 -22.287378 1.920537 -0.315554 -61.458829 2.093771 0.000000 0.000000 0.000000 9.233210 20.278846 7.132727 56.482718 39.780608 14.497037 7.944160 61.960346 6.217366 0.000000 0.000000 0.000000 
